<?xml version="1.0" encoding="UTF-8" standalone="no"?>
<!DOCTYPE svg PUBLIC "-//W3C//DTD SVG 1.1//EN" "http://www.w3.org/Graphics/SVG/1.1/DTD/svg11.dtd">
<!-- Created with Vectornator (http://vectornator.io/) -->
<svg height="100%" stroke-miterlimit="10" style="fill-rule:nonzero;clip-rule:evenodd;stroke-linecap:round;stroke-linejoin:round;" version="1.1" viewBox="0 0 1190.7 841.995" width="100%" xml:space="preserve" xmlns="http://www.w3.org/2000/svg" xmlns:vectornator="http://vectornator.io" xmlns:xlink="http://www.w3.org/1999/xlink">
<defs/>
<g id="Layer-1" vectornator:layerName="Layer 1">
<path d="M36.171 466.209C36.171 466.209 11.3176 466.906 56.8815 481.34C102.445 495.775 58.1168 535.154 145.607 561.188C233.098 587.221 316.491 547.238 409.916 562.445C503.341 577.653 469.689 546.098 605.113 551.757C740.536 557.415 712.86 596.659 790.97 580.678C869.079 564.697 963.051 584.248 1022.59 571.876C1082.13 559.504 1089.84 544.841 1121.59 510.89C1153.34 476.939 1156.29 490.837 1144.26 456.414C1140.05 444.386 1016.74 310.702 824.114 267.284C715.456 242.793 550.375 270.997 428.058 279.974C331.337 287.073 274.305 272.963 202.718 275.369C66.015 279.963 36.171 466.209 36.171 466.209Z" fill="#ffd986" fill-rule="nonzero" opacity="1" stroke="none"/>
<path d="M330.734 302.352C462.368 288.636 567.072 268.004 723.332 267.527C879.591 267.05 870.024 302.113 974.197 309.508C1015.45 312.436 1137.29 320.556 1164.07 388.727C1190.85 456.899 1095.51 515.953 1038.69 544.696C944.611 592.282 634.395 514.522 514.986 509.871C395.576 505.22 351.285 556.861 257.742 544.696C211.585 538.693 28.8448 539.925 28.5716 427.318C28.2985 314.712 264.053 309.3 330.734 302.352Z" fill="#ffc986" fill-rule="nonzero" opacity="1" stroke="none"/>
</g>
</svg>
